<?xml version="1.0" encoding="utf-8"?>
<!-- Generator: Adobe Illustrator 27.5.0, SVG Export Plug-In . SVG Version: 6.00 Build 0)  -->
<svg version="1.1" id="Layer_1" xmlns="http://www.w3.org/2000/svg" xmlns:xlink="http://www.w3.org/1999/xlink" x="0px" y="0px"
	 viewBox="0 0 2860.685 2000" style="enable-background:new 0 0 2860.685 2000;" xml:space="preserve">
<rect x="0" style="fill:#FFFFFF;" width="2860.685" height="2000"/>
<g>
	<g>
		<path style="fill:#DCF4FF;" d="M2347.691,1827.999c0,0,435.426-458.1,235.426-1027.19c-109.3-311.008-304-431.495-641.533-398.295
			C1576.62,438.413,1344.658,64.972,687.703,226.235c-165.581,36.99-321.989,133.564-407.757,296.252
			c-76.344,144.812-82.821,431.226,43.171,630.267s368,409.351,116.604,675.246H2347.691z"/>
	</g>
	<g>
		<g>
			<polygon style="fill:#FFFFFF;" points="950.67,501.167 950.67,1824.366 1936.091,1824.366 1936.091,718.909 1723.932,501.167 			
				"/>
			<polygon style="fill:#AAC9F8;" points="1936.091,719.322 1725.173,501.167 1725.173,719.322 			"/>
			<path style="fill:#AAC9F8;" d="M1834.944,902.362h-640.768c-4.984,0-9.025-4.999-9.025-11.166l0,0
				c0-6.167,4.041-11.166,9.025-11.166h640.768c4.984,0,9.025,4.999,9.025,11.166l0,0
				C1843.969,897.362,1839.929,902.362,1834.944,902.362z"/>
			<path style="fill:#AAC9F8;" d="M1834.944,1000.066h-640.768c-4.984,0-9.025-4.999-9.025-11.166l0,0
				c0-6.167,4.041-11.166,9.025-11.166h640.768c4.984,0,9.025,4.999,9.025,11.166l0,0
				C1843.969,995.067,1839.929,1000.066,1834.944,1000.066z"/>
			<path style="fill:#AAC9F8;" d="M1834.944,1097.771h-640.768c-4.984,0-9.025-5-9.025-11.166l0,0
				c0-6.167,4.041-11.166,9.025-11.166h640.768c4.984,0,9.025,4.999,9.025,11.166l0,0
				C1843.969,1092.771,1839.929,1097.771,1834.944,1097.771z"/>
			<path style="fill:#AAC9F8;" d="M1834.944,1293.18h-640.768c-4.984,0-9.025-4.999-9.025-11.166l0,0
				c0-6.167,4.041-11.166,9.025-11.166h640.768c4.984,0,9.025,4.999,9.025,11.166l0,0
				C1843.969,1288.181,1839.929,1293.18,1834.944,1293.18z"/>
			<path style="fill:#AAC9F8;" d="M1834.944,1390.885h-640.768c-4.984,0-9.025-5-9.025-11.166l0,0
				c0-6.167,4.041-11.166,9.025-11.166h640.768c4.984,0,9.025,4.999,9.025,11.166l0,0
				C1843.969,1385.885,1839.929,1390.885,1834.944,1390.885z"/>
			<path style="fill:#AAC9F8;" d="M1834.944,1195.475h-640.768c-4.984,0-9.025-4.999-9.025-11.166l0,0
				c0-6.167,4.041-11.166,9.025-11.166h640.768c4.984,0,9.025,4.999,9.025,11.166l0,0
				C1843.969,1190.476,1839.929,1195.475,1834.944,1195.475z"/>
			<path style="fill:#AAC9F8;" d="M1834.944,1486.733h-640.768c-4.984,0-9.025-4.999-9.025-11.166l0,0
				c0-6.167,4.041-11.166,9.025-11.166h640.768c4.984,0,9.025,4.999,9.025,11.166l0,0
				C1843.969,1481.734,1839.929,1486.733,1834.944,1486.733z"/>
			<path style="fill:#AAC9F8;" d="M1834.944,1584.438h-640.768c-4.984,0-9.025-4.999-9.025-11.166l0,0
				c0-6.167,4.041-11.166,9.025-11.166h640.768c4.984,0,9.025,4.999,9.025,11.166l0,0
				C1843.969,1579.438,1839.929,1584.438,1834.944,1584.438z"/>
			<path style="fill:#AAC9F8;" d="M1834.944,1681.802h-640.768c-4.984,0-9.025-4.999-9.025-11.166l0,0
				c0-6.167,4.041-11.166,9.025-11.166h640.768c4.984,0,9.025,4.999,9.025,11.166l0,0
				C1843.969,1676.803,1839.929,1681.802,1834.944,1681.802z"/>
			<g>
				<path style="fill:#AAC9F8;" d="M1138.379,902.362h-91.176v-85.444h91.176V902.362z M1056.119,893.445h73.344v-67.611h-73.344
					V893.445z"/>
			</g>
			<g>
				<path style="fill:#AAC9F8;" d="M1138.379,1000.066h-91.176v-85.444h91.176V1000.066z M1056.119,991.15h73.344v-67.611h-73.344
					V991.15z"/>
			</g>
			<path style="fill:#AAC9F8;" d="M1834.944,805.372h-640.768c-4.984,0-9.025-4.999-9.025-11.166l0,0
				c0-6.167,4.041-11.166,9.025-11.166h640.768c4.984,0,9.025,4.999,9.025,11.166l0,0
				C1843.969,800.372,1839.929,805.372,1834.944,805.372z"/>
			<g>
				<path style="fill:#AAC9F8;" d="M1138.379,805.372h-91.176v-85.444h91.176V805.372z M1056.119,796.455h73.344v-67.611h-73.344
					V796.455z"/>
			</g>
			<g>
				<path style="fill:#AAC9F8;" d="M1138.379,1097.771h-91.176v-85.444h91.176V1097.771z M1056.119,1088.854h73.344v-67.611h-73.344
					V1088.854z"/>
			</g>
			<g>
				<path style="fill:#AAC9F8;" d="M1138.379,1195.475h-91.176v-85.444h91.176V1195.475z M1056.119,1186.559h73.344v-67.611h-73.344
					V1186.559z"/>
			</g>
			<g>
				<path style="fill:#AAC9F8;" d="M1138.379,1293.18h-91.176v-85.444h91.176V1293.18z M1056.119,1284.264h73.344v-67.611h-73.344
					V1284.264z"/>
			</g>
			<g>
				<path style="fill:#AAC9F8;" d="M1138.379,1390.885h-91.176v-85.444h91.176V1390.885z M1056.119,1381.968h73.344v-67.611h-73.344
					V1381.968z"/>
			</g>
			<g>
				<path style="fill:#AAC9F8;" d="M1138.379,1486.733h-91.176v-85.444h91.176V1486.733z M1056.119,1477.817h73.344v-67.611h-73.344
					V1477.817z"/>
			</g>
			<g>
				<path style="fill:#AAC9F8;" d="M1138.379,1584.438h-91.176v-85.444h91.176V1584.438z M1056.119,1575.521h73.344v-67.611h-73.344
					V1575.521z"/>
			</g>
			<g>
				<path style="fill:#AAC9F8;" d="M1138.379,1681.802h-91.176v-85.444h91.176V1681.802z M1056.119,1672.886h73.344v-67.611h-73.344
					V1672.886z"/>
			</g>
			<g>
				<path style="fill:#FF424D;" d="M1091.016,885.602l-2.721-5.131c-6.995-13.189-21.11-38.472-21.251-38.726
					c-0.84-1.505-0.302-3.406,1.203-4.246c1.505-0.841,3.406-0.301,4.246,1.203c0.126,0.225,11.175,20.018,18.595,33.765
					c16.108-29.023,42.604-72.633,42.885-73.097c0.896-1.472,2.815-1.94,4.288-1.045c1.472,0.896,1.94,2.815,1.045,4.288
					c-0.298,0.49-29.971,49.33-45.514,77.888L1091.016,885.602z"/>
			</g>
			<g>
				<path style="fill:#FF424D;" d="M1091.016,978.927l-2.721-5.131c-6.995-13.189-21.11-38.472-21.251-38.726
					c-0.84-1.505-0.302-3.406,1.203-4.246c1.505-0.841,3.406-0.301,4.246,1.203c0.126,0.225,11.175,20.018,18.595,33.765
					c16.108-29.023,42.604-72.633,42.885-73.096c0.896-1.472,2.815-1.94,4.288-1.045c1.472,0.896,1.94,2.815,1.045,4.288
					c-0.298,0.49-29.971,49.33-45.514,77.888L1091.016,978.927z"/>
			</g>
			<g>
				<path style="fill:#FF424D;" d="M1091.016,1078.26l-2.721-5.131c-6.995-13.189-21.11-38.472-21.251-38.726
					c-0.84-1.505-0.302-3.406,1.203-4.246c1.505-0.841,3.406-0.301,4.246,1.203c0.126,0.225,11.175,20.018,18.595,33.766
					c16.108-29.023,42.604-72.633,42.885-73.097c0.896-1.472,2.815-1.94,4.288-1.045c1.472,0.896,1.94,2.815,1.045,4.288
					c-0.298,0.49-29.971,49.33-45.514,77.888L1091.016,1078.26z"/>
			</g>
			<g>
				<path style="fill:#FF424D;" d="M1091.016,1177.437l-2.721-5.131c-6.995-13.189-21.11-38.472-21.251-38.726
					c-0.84-1.505-0.302-3.406,1.203-4.246c1.505-0.841,3.406-0.301,4.246,1.203c0.126,0.225,11.175,20.018,18.595,33.765
					c16.108-29.023,42.604-72.633,42.885-73.097c0.896-1.472,2.815-1.94,4.288-1.045c1.472,0.896,1.94,2.815,1.045,4.288
					c-0.298,0.49-29.971,49.33-45.514,77.887L1091.016,1177.437z"/>
			</g>
		</g>
	</g>
	<g>
		<path d="M2624.474,1832.828H317.656c-2.529,0-4.58-2.05-4.58-4.58v-0.499c0-2.529,2.05-4.58,4.58-4.58h2306.818
			c2.529,0,4.58,2.05,4.58,4.58v0.499C2629.054,1830.778,2627.003,1832.828,2624.474,1832.828z"/>
	</g>
	<g>
		<g>
			<g>
				<g>
					<g>
						<polygon style="fill:#4C222E;" points="2429.557,1824.366 2437.927,1824.366 2419.56,1523.82 2398.872,1523.82 						"/>
					</g>
				</g>
				<g>
					<g>
						<polygon style="fill:#4C222E;" points="2137.329,1824.366 2128.96,1824.366 2147.326,1523.82 2168.014,1523.82 						"/>
					</g>
				</g>
				<g>
					<g>
						<g>
							<polygon style="fill:#FEC786;" points="2496.686,1103.571 2316.501,1103.571 2221.182,1527.956 2427.66,1505.943 							"/>
						</g>
					</g>
				</g>
				<g>
					<g>
						<g>
							<path style="fill:#F99247;" d="M2083.099,1478.728c0,0,237.655,6.001,308.322,6.001c11.404,0,21.18-8.323,23.252-19.791
								l62.831-347.866c1.688-9.345,10.62-15.453,19.771-13.378c8.717,1.977,14.163,10.913,12.541,19.892l-71.178,394.081
								c-0.552,3.055-1.89,5.751-3.745,7.942c-4.58,8.701-13.567,14.617-23.907,14.617h-327.029
								c-14.987,0-27.135-12.424-27.135-27.75l0,0C2056.821,1497.15,2068.113,1478.728,2083.099,1478.728z"/>
						</g>
					</g>
				</g>
				<g>
					<g>
						<g>
							<path style="fill:#21111D;" d="M2391.42,1486.082c12.04,0,22.366-8.789,24.553-20.899l62.831-347.866
								c0.753-4.17,3.072-7.757,6.531-10.099c3.456-2.341,7.593-3.125,11.653-2.203c0.712,0.161,1.42-0.299,1.578-1.029
								c0.158-0.729-0.292-1.452-1.005-1.614c-4.767-1.081-9.627-0.159-13.687,2.59c-4.062,2.751-6.787,6.965-7.672,11.864
								l-62.831,347.866c-1.955,10.826-11.187,18.684-21.951,18.684c-0.731,0-1.323,0.606-1.323,1.353
								C2390.097,1485.476,2390.689,1486.082,2391.42,1486.082z"/>
						</g>
					</g>
				</g>
				<g>
					<g>
						<g>
							<path style="fill:#21111D;" d="M2273.716,1541.814h0.002l128.27-0.235c34.552,3.184,38.666-27.052,38.862-28.712
								l7.626-42.221c0.133-0.735-0.342-1.44-1.061-1.576c-0.722-0.135-1.409,0.35-1.542,1.084l-7.649,42.374
								c-0.119,1.202-3.307,29.404-36.058,26.349l-0.123-0.005l-128.33,0.235c-0.73,0.002-1.322,0.608-1.321,1.356
								C2272.394,1541.21,2272.986,1541.814,2273.716,1541.814z"/>
						</g>
					</g>
				</g>
				<g>
					<g>
						<g>
							<path style="fill:#21111D;" d="M2427.268,1104.924h0.002l63.053-0.094c0.731-0.001,1.322-0.608,1.322-1.355
								c-0.001-0.747-0.593-1.351-1.323-1.351h-0.002l-63.054,0.094c-0.731,0.001-1.322,0.608-1.322,1.355
								C2425.946,1104.32,2426.538,1104.924,2427.268,1104.924z"/>
						</g>
					</g>
				</g>
			</g>
			<g>
				<g>
					<g>
						<path style="fill:#FE9F73;" d="M2351.764,1242.295l-20.621,8.917l-22.934,10.875c0,0-35.616,6.184-36.132,6.068
							c-0.075-0.017,2.959,5.301,2.959,5.301c-44.191,5.452-183.473,11.173-206.339,13.726
							c-13.785,1.539-27.031,18.678-35.383,32.053l11.321,7.661c0,0,121.635-5.364,121.39-2.809
							c-0.077,0.807-3.508,12.882-8.838,28.682c75.125,5.022,180.333,4.54,199.869-26.42
							C2373.084,1300.948,2357.459,1264.488,2351.764,1242.295z"/>
					</g>
				</g>
				<g>
					<g>
						<g>
							<g>
								<g>
									<g>
										<g>
											<g>
												<g>
													<g>
														<polygon style="fill:#FE9F73;" points="1882.526,1785.006 1974.953,1786.265 1976.278,1699.855 1884.214,1688.454 
																													"/>
													</g>
												</g>
											</g>
										</g>
									</g>
								</g>
							</g>
						</g>
					</g>
				</g>
				<g>
					<g>
						<g>
							<g>
								<path style="fill:#49263E;" d="M2166.69,1480.149c0,0,79.565,1.308,135.332-0.601c17.9-0.613,33.83,0.648,43.262-1.447
									c38.815-8.621,48.377-129.787,4.302-204.023c-44.074-74.236-198.277,153.69-198.277,153.69L2166.69,1480.149z"/>
							</g>
						</g>
					</g>
				</g>
				<g>
					<g>
						<g>
							<g>
								<g>
									<g>
										<g>
											<g>
												<g>
													<g>
														<polygon style="fill:#FE9F73;" points="2022.706,1788.284 2115.134,1789.543 2116.458,1703.133 2024.395,1691.732 
																													"/>
													</g>
												</g>
											</g>
										</g>
									</g>
								</g>
							</g>
						</g>
					</g>
				</g>
				<g>
					<g>
						<g>
							<g>
								<g>
									<path style="fill:#35182E;" d="M2081.017,1317.994c0,0-195.444,12.491-201.086,35.061
										c-5.642,22.571-21.81,262.534-9.719,364.908c0,0,74.154,5.105,109.619-3.493l8.631-249.62l58.537-6.717l134.098-161.219
										L2081.017,1317.994z"/>
								</g>
							</g>
						</g>
					</g>
				</g>
				<g>
					<g>
						<g>
							<g>
								<g>
									<path style="fill:#49263E;" d="M2174.919,1314.299c0,0-150.726,42.534-156.369,65.105
										c-5.642,22.571-21.703,236.723-9.613,339.097c0,0,79.737,4.568,115.202-4.031l9.557-235.472l34.396,1.2l83.399-146.741
										L2174.919,1314.299z"/>
								</g>
							</g>
						</g>
					</g>
				</g>
				<g>
					<g>
						<g>
							<g>
								<g>
									<path style="fill:#21111D;" d="M2076.293,1721.284c35.234,0,47.797-5.307,48.393-5.568l0.779-0.343l9.252-236.857
										l-14.56,6.868l1.16,2.46l10.506-4.955l-9.008,230.623c-3.811,1.316-22.086,6.59-65.245,4.597l-0.126,2.717
										C2064.346,1721.146,2070.615,1721.284,2076.293,1721.284z"/>
								</g>
							</g>
						</g>
					</g>
				</g>
				<g>
					<g>
						<g>
							<g>
								<g>
									<path style="fill:#21111D;" d="M2109.335,1670.208c3.76-14.505,4.836-155.992,4.88-162.008l-2.72-0.019
										c-0.011,1.47-1.116,147.162-4.793,161.345L2109.335,1670.208z"/>
								</g>
							</g>
						</g>
					</g>
				</g>
				<g>
					<g>
						<g>
							<g>
								<g>
									<path style="fill:#21111D;" d="M1969.264,1470.174c17.872-5.782,42.473-6.651,42.719-6.659l-0.089-2.719
										c-0.25,0.008-25.226,0.887-43.468,6.79L1969.264,1470.174z"/>
								</g>
							</g>
						</g>
					</g>
				</g>
				<g>
					<g>
						<g>
							<g>
								<g>
									<path style="fill:#21111D;" d="M1929.045,1720.778c30.106,0,50.893-4.935,51.106-4.986l1.004-0.243l8.728-252.401
										l-11.143,8.972l1.706,2.118l6.513-5.244l-8.45,244.376c-4.612,0.995-24.703,4.963-52.099,4.673l-0.026,2.721
										C1927.278,1720.775,1928.166,1720.778,1929.045,1720.778z"/>
								</g>
							</g>
						</g>
					</g>
				</g>
				<g>
					<g>
						<g>
							<g>
								<g>
									<path style="fill:#21111D;" d="M1966.962,1675.469c3.74-21.911,0.173-170.224,0.019-176.527l-2.719,0.065
										c0.038,1.542,3.715,154.352,0.019,176.004L1966.962,1675.469z"/>
								</g>
							</g>
						</g>
					</g>
				</g>
				<g>
					<g>
						<g>
							<g>
								<path style="fill:#21111D;" d="M2226.559,1482.685c34.717,0,76.339-1.175,123.13-4.699l-0.204-2.703
									c-139.415,10.505-232.911,0.112-233.839,0.005l-0.308,2.692C2115.957,1478.052,2157.631,1482.685,2226.559,1482.685z"/>
							</g>
						</g>
					</g>
				</g>
				<g>
					<g>
						<g>
							<g>
								<g>
									<g>
										<path style="fill:#7FC6A6;" d="M2178.835,1238.297c-2.692-0.046-110.962,46.522-110.962,46.522l21.82,41.755l60.76-13.339
											L2178.835,1238.297z"/>
									</g>
								</g>
							</g>
						</g>
					</g>
				</g>
				<g>
					<g>
						<g>
							<g>
								<path style="fill:#7FC6A6;" d="M2335.705,1044.241c0,0,46.038-1.611,68.016,10.841
									c32.797,18.582,21.114,125.004,21.114,125.004s-27.87-15.203-29.559-20.271
									C2393.586,1154.747,2335.705,1044.241,2335.705,1044.241z"/>
							</g>
						</g>
					</g>
				</g>
				<g>
					<g>
						<g>
							<g>
								<g>
									<g>
										<path style="fill:#21111D;" d="M2346.873,1275.245c-0.054,0.021-0.109,0.037-0.167,0.051l-33.871,7.751
											c-0.682,0.155-1.361-0.271-1.518-0.953s0.269-1.359,0.952-1.518l33.871-7.751c0.682-0.156,1.361,0.271,1.517,0.953
											C2347.802,1274.402,2347.456,1275.025,2346.873,1275.245z"/>
									</g>
								</g>
							</g>
						</g>
					</g>
				</g>
				<g>
					<g>
						<path style="fill:#F9B59D;" d="M2364.574,1255.106l-20.621,8.917l-22.934,10.875c0,0-35.616,6.183-36.132,6.068
							c-0.075-0.017,2.959,5.301,2.959,5.301c-44.191,5.452-183.472,11.173-206.339,13.725
							c-13.785,1.539-27.032,18.678-35.384,32.053l11.321,7.661c0,0,121.635-5.364,121.39-2.809
							c-0.077,0.807-3.508,12.881-8.838,28.682c75.125,5.022,180.333,4.54,199.869-26.42
							C2385.894,1313.758,2370.269,1277.299,2364.574,1255.106z"/>
					</g>
				</g>
				<g>
					<g>
						<g>
							<g>
								<path style="fill:#7FC6A6;" d="M2380.27,1052.548c-26.166-3.624-95.208-6.124-95.208-6.124s-9.146,2.399-6.233,1.048
									c-76.244,13.463-84.672,70.009-84.672,70.009l-37.218,163.378l-41.415,2.242c-13.404,25.398-3.56,93.904-3.56,93.904
									l200.6,22.61c0,0,43.36,7.149,80.032-39.885c24.26-31.115,32.514-126.648,32.504-196.45
									C2425.1,1163.28,2420.931,1058.179,2380.27,1052.548z"/>
							</g>
						</g>
					</g>
				</g>
				<g>
					<g>
						<g>
							<g>
								<polygon style="fill:#FF424D;" points="1818.394,1179.059 2009.392,1179.059 2076.004,1348.703 1885.006,1348.703 								
									"/>
							</g>
						</g>
						<g>
							<g>
								<polygon style="fill:#F22F41;" points="2076.004,1348.703 2066.037,1348.703 1999.425,1179.059 2009.392,1179.059 								
									"/>
							</g>
						</g>
						<g>
							<g>
								<path style="fill:#E2F2F1;" d="M1943.262,1258.476c2.648,7.793,0.708,15.499-4.333,17.212
									c-5.041,1.713-11.273-3.216-13.921-11.01c-2.647-7.793-0.708-15.499,4.333-17.212
									C1934.382,1245.753,1940.614,1250.682,1943.262,1258.476z"/>
							</g>
						</g>
					</g>
					<g>
						<g>
							<path style="fill:#F22F41;" d="M2139.143,1335.003h-71.353v13.7h71.353c3.783,0,6.849-3.067,6.849-6.85l0,0
								C2145.992,1338.07,2142.925,1335.003,2139.143,1335.003z"/>
						</g>
					</g>
					<g>
						<g>
							<rect x="2076.004" y="1339.707" style="fill:#E23E3D;" width="45.074" height="2.147"/>
						</g>
					</g>
				</g>
				<g>
					<g>
						<g>
							<g>
								<g>
									<g>
										<path style="fill:#21111D;" d="M2312.837,1283.688c-0.229,0.086-0.483,0.108-0.738,0.048
											c-0.681-0.16-1.103-0.843-0.943-1.523c0.21-0.894,21.176-90.022,30.096-146.107c0.111-0.692,0.763-1.161,1.45-1.052
											c0.691,0.11,1.163,0.76,1.052,1.45c-8.936,56.179-29.922,145.396-30.133,146.29
											C2313.522,1283.22,2313.218,1283.544,2312.837,1283.688z"/>
									</g>
								</g>
							</g>
						</g>
					</g>
				</g>
				<g>
					<g>
						<g>
							<g>
								<g>
									<g>
										<path style="fill:#21111D;" d="M2183.088,1282.224c-0.257,0.097-0.547,0.111-0.828,0.023
											c-0.668-0.211-1.038-0.922-0.827-1.589c0.314-0.993,31.417-99.692,37.915-133.814c0.131-0.688,0.796-1.138,1.481-1.008
											c0.688,0.131,1.139,0.794,1.008,1.481c-6.525,34.268-37.674,133.108-37.987,134.103
											C2183.727,1281.804,2183.439,1282.091,2183.088,1282.224z"/>
									</g>
								</g>
							</g>
						</g>
					</g>
				</g>
				<g>
					<g>
						<g>
							<g>
								<g>
									<g>
										<path style="fill:#21111D;" d="M2309.541,1094.309c-0.98,0.101-1.977,0.188-2.994,0.259
											c-0.58,0.041-1.083-0.397-1.124-0.977c-0.041-0.579,0.378-1.078,0.977-1.124c43.629-3.063,51.73-35.005,51.792-35.326
											c0.107-0.561,0.644-0.952,1.21-0.853c0.564,0.095,0.952,0.609,0.871,1.175
											C2360.226,1057.793,2352.173,1089.898,2309.541,1094.309z"/>
									</g>
								</g>
							</g>
						</g>
					</g>
				</g>
				<g>
					<g>
						<g>
							<g>
								<g>
									<g>
										<path style="fill:#21111D;" d="M2174.185,1258.67c-0.568,0.215-1.224-0.005-1.541-0.547l-8.504-14.573l0.111-0.488
											l28.661-125.816c0.177-1.135,2.661-15.796,15.089-31.963c11.651-15.157,34.628-34.431,77.917-40.19
											c0.694-0.092,1.331,0.395,1.423,1.089c0.092,0.692-0.396,1.331-1.089,1.423c-42.355,5.634-64.792,24.377-76.157,39.11
											c-12.315,15.965-14.664,30.808-14.685,30.955l-0.018,0.094l-28.56,125.373l8.001,13.709
											c0.353,0.604,0.149,1.38-0.456,1.733C2174.314,1258.614,2174.25,1258.645,2174.185,1258.67z"/>
									</g>
								</g>
							</g>
						</g>
					</g>
				</g>
				<g>
					<g>
						<g>
							<g>
								<g>
									<g>
										<path style="fill:#21111D;" d="M2129.331,1259.13c-0.644,0.243-1.368-0.073-1.624-0.716
											c-0.259-0.65,0.058-1.387,0.707-1.646l36.602-14.601c0.674-0.232,1.387,0.057,1.646,0.707
											c0.259,0.65-0.058,1.387-0.707,1.646l-36.602,14.601C2129.346,1259.124,2129.339,1259.127,2129.331,1259.13z"/>
									</g>
								</g>
							</g>
						</g>
					</g>
				</g>
				<g>
					<g>
						<g>
							<g>
								<path style="fill:#7FC6A6;" d="M2115.524,1283.102c0,0-13.239,31.244-3.56,93.904l48.406-25.974l-14.378-46.81
									L2115.524,1283.102z"/>
							</g>
						</g>
					</g>
				</g>
				<g>
					<g>
						<g>
							<g>
								<g>
									<g>
										<path style="fill:#21111D;" d="M2356.587,1284.814c-0.15,0.057-0.315,0.086-0.486,0.081
											c-1.812-0.056-181.046-5.435-239.687-0.597c-1.442,3.85-8.059,23.741-6.206,60.133c0.035,0.699-0.498,1.295-1.2,1.33
											c-0.699,0.035-1.294-0.503-1.33-1.201c-2.098-41.238,6.325-61.138,6.685-61.965l0.302-0.692l0.752-0.065
											c57.958-4.964,238.941,0.468,240.763,0.522c0.699,0.021,1.249,0.606,1.228,1.305
											C2357.391,1284.196,2357.053,1284.638,2356.587,1284.814z"/>
									</g>
								</g>
							</g>
						</g>
					</g>
				</g>
				<g>
					<g>
						<g>
							<g>
								<g>
									<g>
										<g>
											<g>
												<g>
													<path style="fill:#FE9F73;" d="M2274.645,951.399l-1.43,55.133c0,0-1.198,17.705,14.251,20.323l-3.509,23.572
														c-1.304,8.762,3.733,17.314,12.105,20.205c4.094,1.414,8.996,2.496,14.584,2.641
														c17.722,0.46,27.667-12.584,29.316-19.192c1.649-6.608-1.958-38.478-1.958-38.478l0.945-15.59L2338.5,939.5
														L2274.645,951.399z"/>
												</g>
											</g>
										</g>
									</g>
								</g>
							</g>
						</g>
					</g>
					<g>
						<g>
							<g>
								<g>
									<g>
										<g>
											<g>
												<g>
													<path style="fill:#F07162;" d="M2323.807,1012.731c0,0-1.81,29.638-38.929,31.51l2.588-17.386
														C2287.466,1026.855,2311.367,1032.306,2323.807,1012.731z"/>
												</g>
											</g>
										</g>
									</g>
								</g>
							</g>
						</g>
					</g>
					<g>
						<g>
							<g>
								<g>
									<g>
										<g>
											<g>
												<g>
													<path style="fill:#49263E;" d="M2316.682,981.426c0.184,0.005,0.37-0.059,0.517-0.193
														c0.301-0.274,0.323-0.741,0.049-1.043c-0.099-0.109-9.986-10.762-19.461-3.524c-0.324,0.247-0.386,0.711-0.139,1.035
														c0.248,0.325,0.711,0.387,1.035,0.138c8.396-6.412,17.105,2.945,17.472,3.346
														C2316.297,981.34,2316.488,981.421,2316.682,981.426z"/>
												</g>
											</g>
										</g>
									</g>
								</g>
							</g>
						</g>
					</g>
					<g>
						<g>
							<g>
								<g>
									<g>
										<g>
											<path style="fill:#49263E;" d="M2342.332,974.338l-16.023,2.904l-2.958,2.91c0,0,2.073-26.684,5.211-31.86
												C2331.7,943.117,2342.332,974.338,2342.332,974.338z"/>
										</g>
									</g>
								</g>
							</g>
						</g>
					</g>
					<g>
						<g>
							<g>
								<g>
									<g>
										<g>
											<g>
												<g>
													<path style="fill:#49263E;" d="M2286.357,976.206c0.207,0.005,0.415-0.076,0.565-0.241
														c0.275-0.301,0.254-0.768-0.047-1.043c-0.291-0.266-7.179-6.473-11.731-2.77c-0.316,0.257-0.364,0.722-0.107,1.039
														c0.257,0.318,0.722,0.365,1.039,0.107c3.566-2.901,9.74,2.659,9.802,2.715
														C2286.015,976.138,2286.186,976.201,2286.357,976.206z"/>
												</g>
											</g>
										</g>
									</g>
								</g>
							</g>
						</g>
					</g>
					<g>
						<g>
							<g>
								<g>
									<g>
										<g>
											<g>
												<g>
													<path d="M2301.672,984.023c-0.032,1.224,0.934,2.241,2.158,2.273c1.223,0.032,2.241-0.935,2.273-2.158
														c0.032-1.224-0.934-2.241-2.158-2.273C2302.721,981.834,2301.704,982.8,2301.672,984.023z"/>
												</g>
											</g>
										</g>
									</g>
								</g>
							</g>
						</g>
					</g>
					<g>
						<g>
							<g>
								<g>
									<g>
										<g>
											<g>
												<g>
													<path d="M2278.182,981.197c-0.032,1.224,0.934,2.241,2.158,2.273c1.224,0.032,2.241-0.934,2.273-2.158
														c0.032-1.224-0.935-2.241-2.158-2.273C2279.231,979.007,2278.214,979.974,2278.182,981.197z"/>
												</g>
											</g>
										</g>
									</g>
								</g>
							</g>
						</g>
					</g>
					<g>
						<g>
							<g>
								<g>
									<g>
										<g>
											<g>
												<g>
													<path style="fill:#FE9F73;" d="M2319.989,983.729c-0.191,7.341,5.606,13.447,12.947,13.638
														c7.341,0.19,13.446-5.607,13.636-12.948c0.19-7.341-5.606-13.447-12.947-13.638
														C2326.284,970.59,2320.179,976.388,2319.989,983.729z"/>
												</g>
											</g>
										</g>
									</g>
								</g>
							</g>
						</g>
					</g>
					<g>
						<g>
							<g>
								<g>
									<g>
										<g>
											<g>
												<g>
													<path style="fill:#F07162;" d="M2335.415,991.513c2.761,0.072,4.659-1.956,5.32-4.014
														c0.782-2.435,0.021-4.84-1.939-6.128c-2.896-1.904-5.595-0.8-6.985,0.063c0.613-1.494,1.541-2.569,2.768-3.203
														c2.656-1.374,5.877-0.24,5.909-0.228c0.192,0.07,0.404-0.03,0.473-0.222c0.069-0.192-0.03-0.403-0.221-0.473
														c-0.143-0.052-3.548-1.255-6.495,0.264c-1.701,0.877-2.884,2.477-3.517,4.755l-0.355,1.277l0.965-0.91
														c0.136-0.129,3.377-3.121,7.052-0.706c2.035,1.337,2.156,3.683,1.642,5.285c-0.534,1.663-2.056,3.568-4.595,3.502
														c-0.025-0.001-0.049-0.003-0.076-0.003c-0.201-0.005-0.37,0.152-0.378,0.355c-0.008,0.203,0.15,0.376,0.354,0.384
														C2335.363,991.511,2335.389,991.512,2335.415,991.513z"/>
												</g>
											</g>
										</g>
									</g>
								</g>
							</g>
						</g>
					</g>
					<g>
						<g>
							<g>
								<g>
									<g>
										<g>
											<g>
												<g>
													<path style="fill:#F07162;" d="M2293.47,998.765c0.155,0.004,0.302-0.09,0.357-0.244
														c0.069-0.192-0.031-0.404-0.222-0.473l-7.338-2.64l2.79-17.359c0.032-0.201-0.104-0.391-0.306-0.423
														c-0.203-0.038-0.391,0.105-0.424,0.306l-2.888,17.965l7.915,2.847C2293.393,998.757,2293.431,998.764,2293.47,998.765z
														"/>
												</g>
											</g>
										</g>
									</g>
								</g>
							</g>
						</g>
					</g>
					<g>
						<g>
							<g>
								<g>
									<g>
										<g>
											<g>
												<g>
													<path style="fill:#FBFDFC;" d="M2299.016,1006.106c-0.226-0.05-14.611-0.761-14.611-0.761s1.653,6,6.998,6.279
														C2296.75,1011.902,2299.016,1006.106,2299.016,1006.106z"/>
												</g>
											</g>
										</g>
									</g>
								</g>
							</g>
						</g>
					</g>
					<g>
						<g>
							<g>
								<g>
									<g>
										<g>
											<path style="fill:#49263E;" d="M2342.332,974.338c0,0,5.159-25.767-2.515-35.62
												c-7.674-9.854-52.715-27.917-58.353-23.236c-5.638,4.681-0.277,10.682-0.277,10.682s-18.108-6.331-22.663,9.756
												c-4.554,16.087,34.544,23.998,58.169,17.025C2316.693,952.944,2332.072,957.866,2342.332,974.338z"/>
										</g>
									</g>
								</g>
							</g>
						</g>
					</g>
				</g>
				<g>
					<g>
						<g>
							<g>
								<g>
									<g>
										<path style="fill:#21111D;" d="M2347.51,1395.849c-2.974,1.124-5.775,2.002-8.357,2.687
											c-15.508,4.114-26.341,2.405-26.796,2.33c-0.689-0.113-1.156-0.765-1.042-1.455c0.112-0.69,0.764-1.157,1.454-1.045
											c0.107,0.018,10.853,1.695,25.866-2.315c13.847-3.694,34.278-13.136,52.963-37.1
											c23.457-30.084,32.024-122.707,32.235-192.882c0.001-0.699,0.571-1.267,1.27-1.263c0.7,0.002,1.265,0.571,1.263,1.27
											c-0.21,70.575-8.919,163.844-32.77,194.433C2377.904,1380.635,2360.962,1390.764,2347.51,1395.849z"/>
									</g>
								</g>
							</g>
						</g>
					</g>
				</g>
			</g>
		</g>
		<g>
			<g>
				<g>
					<path style="fill:#E23E3D;" d="M1975.822,1804.325h-79.836l-32.369-35.262l-59.203,35.262h-12.751
						c-4.394,0-8.422,2.972-9.25,7.287c-1.114,5.807,3.307,10.885,8.913,10.885h185.634c1.364,0,2.47-1.106,2.47-2.47v-12.094
						C1979.43,1805.941,1977.814,1804.325,1975.822,1804.325z"/>
				</g>
			</g>
			<g>
				<g>
					<path style="fill:#F46277;" d="M1975.116,1804.428v-32.775c0,0-13.445-18.1-33.917-8.861c0,0-30.964,21.968-58.26-4.616
						l-67.783,30.07c0,0-18.585,6.213-23.618,16.183H1975.116z"/>
				</g>
			</g>
			<g>
				<g>
					<g>
						<g>
							<rect x="1974.437" y="1771.653" width="1.359" height="32.612"/>
						</g>
					</g>
				</g>
			</g>
			<g>
				<g>
					<g>
						<g>
							<path d="M1913.448,1772.01c-2.594,0-4.158-0.221-4.208-0.229l0.201-1.343c0.158,0.021,16.159,2.266,31.373-8.205l0.77,1.12
								C1930.682,1770.854,1919.376,1772.01,1913.448,1772.01z"/>
						</g>
					</g>
				</g>
			</g>
			<g>
				<g>
					<g>
						<g>
							
								<rect x="1957.346" y="1794.143" transform="matrix(0.8297 -0.5583 0.5583 0.8297 -667.6852 1401.338)" width="10.443" height="1.36"/>
						</g>
					</g>
				</g>
			</g>
			<g>
				<g>
					<g>
						<g>
							
								<rect x="1951.138" y="1792.493" transform="matrix(0.8291 -0.5591 0.5591 0.8291 -668.2191 1400.2393)" width="10.442" height="1.358"/>
						</g>
					</g>
				</g>
			</g>
			<g>
				<g>
					<g>
						<g>
							<g>
								<g>
									<g>
										<g>
											<g>
												<g>
													<path d="M1785.01,1820.921c-2.192-1.859-3.449-4.574-3.449-7.448c0-5.385,4.381-9.766,9.765-9.766h183.549
														c2.887,0,5.235,2.349,5.235,5.236v9.06h-1.359v-9.06c0-2.139-1.739-3.877-3.875-3.877h-183.549
														c-4.636,0-8.406,3.771-8.406,8.407c0,2.473,1.082,4.81,2.969,6.412L1785.01,1820.921z"/>
												</g>
											</g>
										</g>
									</g>
								</g>
							</g>
						</g>
					</g>
				</g>
			</g>
			<g>
				<g>
					<g>
						<g>
							<path d="M1791.94,1804.677l-1.229-0.58c0.151-0.323,3.87-7.943,17.744-13.86c13.634-5.815,73.603-32.415,74.207-32.683
								l0.552,1.242c-0.605,0.268-60.583,26.872-74.225,32.691C1795.639,1797.182,1791.975,1804.603,1791.94,1804.677z"/>
						</g>
					</g>
				</g>
			</g>
		</g>
		<g>
			<g>
				<g>
					<path style="fill:#FF424D;" d="M2117.693,1804.325h-79.836l-32.369-35.262l-59.203,35.262h-12.751
						c-4.394,0-8.422,2.972-9.25,7.287c-1.114,5.807,3.307,10.885,8.913,10.885h185.634c1.365,0,2.47-1.106,2.47-2.47v-12.094
						C2121.301,1805.941,2119.686,1804.325,2117.693,1804.325z"/>
				</g>
			</g>
			<g>
				<g>
					<path style="fill:#FD7583;" d="M2116.987,1804.428v-32.775c0,0-13.445-18.1-33.917-8.861c0,0-30.964,21.968-58.26-4.616
						l-67.783,30.07c0,0-18.585,6.213-23.618,16.183H2116.987z"/>
				</g>
			</g>
			<g>
				<g>
					<g>
						<g>
							<rect x="2116.308" y="1771.653" width="1.359" height="32.612"/>
						</g>
					</g>
				</g>
			</g>
			<g>
				<g>
					<g>
						<g>
							<path d="M2055.319,1772.01c-2.594,0-4.158-0.221-4.208-0.229l0.202-1.343c0.158,0.021,16.158,2.266,31.373-8.205l0.77,1.12
								C2072.554,1770.854,2061.248,1772.01,2055.319,1772.01z"/>
						</g>
					</g>
				</g>
			</g>
			<g>
				<g>
					<g>
						<g>
							
								<rect x="2099.218" y="1794.143" transform="matrix(0.8297 -0.5582 0.5582 0.8297 -643.5007 1480.3713)" width="10.443" height="1.36"/>
						</g>
					</g>
				</g>
			</g>
			<g>
				<g>
					<g>
						<g>
							
								<rect x="2093.009" y="1792.493" transform="matrix(0.8291 -0.5591 0.5591 0.8291 -643.9737 1479.5591)" width="10.442" height="1.358"/>
						</g>
					</g>
				</g>
			</g>
			<g>
				<g>
					<g>
						<g>
							<g>
								<g>
									<g>
										<g>
											<g>
												<g>
													<path d="M1926.881,1820.921c-2.192-1.859-3.449-4.574-3.449-7.448c0-5.385,4.381-9.766,9.765-9.766h183.549
														c2.887,0,5.235,2.349,5.235,5.236v9.06h-1.359v-9.06c0-2.139-1.738-3.877-3.875-3.877h-183.549
														c-4.636,0-8.406,3.771-8.406,8.407c0,2.473,1.082,4.81,2.969,6.412L1926.881,1820.921z"/>
												</g>
											</g>
										</g>
									</g>
								</g>
							</g>
						</g>
					</g>
				</g>
			</g>
			<g>
				<g>
					<g>
						<g>
							<path d="M1933.812,1804.677l-1.229-0.58c0.151-0.323,3.87-7.943,17.745-13.86c13.634-5.815,73.603-32.415,74.207-32.683
								l0.552,1.242c-0.605,0.268-60.584,26.872-74.226,32.691C1937.51,1797.182,1933.846,1804.603,1933.812,1804.677z"/>
						</g>
					</g>
				</g>
			</g>
		</g>
	</g>
	<g>
		<g>
			<g>
				<path style="fill:#F49D75;" d="M1033.541,688.322c-33.245,4.739-76.526-26.099-115.666-30.676
					c-39.139-4.568-46.883-62.056-46.883-62.056s71.346,5.081,85.454,12.427c8.866,4.62,47.181,23.358,74.877,37.415
					c12.123,6.15,22.208,11.396,26.897,14.174c0.726,0.428,1.318,0.795,1.776,1.102c0.075,0.051,0.15,0.102,0.217,0.145
					c0.458,0.324,0.733,0.553,0.815,0.697C1062.734,664.575,1066.777,683.583,1033.541,688.322z"/>
			</g>
		</g>
		<g>
			<g>
				<g>
					<path style="fill:#F07162;" d="M1058.22,659.607c0.726,0.428,1.318,0.795,1.776,1.102c-1.334,2.269-2.87,4.595-4.658,6.909
						c-1.822,2.356-5.328,2.881-8.157,1.306c-0.142-0.077-0.276-0.154-0.409-0.24l-14.907-9.596c0,0-2.134-2.222-1.682-8.279
						c0.138-1.879,0.586-3.73,1.141-5.378C1043.447,651.582,1053.532,656.828,1058.22,659.607z"/>
				</g>
				<g>
					<path style="fill:#F07162;" d="M1061.631,657.763l0,0.008c-0.041-0.059-0.083-0.118-0.132-0.178
						C1061.549,657.645,1061.59,657.704,1061.631,657.763z"/>
				</g>
			</g>
			<g>
				<g>
					<path style="fill:#FDC9BC;" d="M1059.996,660.709c0.075,0.051,0.15,0.102,0.217,0.145c-1.241,2.22-2.727,4.529-4.497,6.819
						c-1.601,2.081-5.575,3.164-8.01,1.601l-0.558-0.358c0.008,0,0.025,0.009,0.034,0.009c2.101,0.602,5.162-0.667,6.43-2.315
						c1.822-2.356,3.333-4.724,4.609-7.002C1058.946,660.034,1059.538,660.402,1059.996,660.709z"/>
				</g>
				<g>
					<path style="fill:#FDC9BC;" d="M1060.163,656.119c-0.042-0.042-0.075-0.076-0.117-0.102l0.008-0.008
						C1060.089,656.042,1060.13,656.076,1060.163,656.119z"/>
				</g>
			</g>
		</g>
		<g>
			<g>
				<path d="M1046.014,686.604l-0.866-2.181c8.432-3.345,13.627-7.65,15.439-12.796c1.552-4.403,0.061-8.164-0.431-9.209
					c-6.473-3.311-101.32-51.795-112.718-56.161c-11.641-4.459-75.889-9.445-76.536-9.495l0.179-2.339
					c2.659,0.205,65.238,5.062,77.196,9.643c11.858,4.543,109.151,54.32,113.287,56.436l0.309,0.158l0.173,0.301
					c0.121,0.209,2.93,5.2,0.771,11.396C1060.785,678.195,1055.131,682.988,1046.014,686.604z"/>
			</g>
		</g>
		<g>
			<g>
				<path style="fill:#F49D75;" d="M1043.48,766.486c-43.025-2.267-89.875-51.814-138.023-67.275
					c-48.148-15.452-43.656-89.742-43.656-89.742s88.57,24.063,104.51,36.818c9.622,7.701,50.259,38.553,81.279,62.737
					c15.11,11.789,27.946,21.993,33.784,27.16c0.857,0.756,1.555,1.402,2.095,1.928c0.125,0.119,0.233,0.229,0.341,0.339
					c0.54,0.543,0.846,0.933,0.92,1.143C1086.119,743.832,1086.506,768.761,1043.48,766.486z"/>
			</g>
		</g>
		<g>
			<g>
				<g>
					<path style="fill:#F07162;" d="M1081.374,736.184c0.857,0.756,1.555,1.402,2.095,1.928c-0.896,1.309-1.85,2.616-2.854,3.923
						c-2.554,3.322-7.498,4.05-11.479,1.824l-0.009,0c-0.183-0.103-0.359-0.214-0.534-0.325l-20.911-13.455
						c0,0-2.997-3.122-2.368-11.619c0.246-3.381,1.214-6.686,2.276-9.437C1062.701,720.813,1075.536,731.017,1081.374,736.184z"/>
				</g>
				<g>
					<path style="fill:#F07162;" d="M1089.443,728.219v0.008c-0.091-0.144-0.198-0.279-0.298-0.406
						C1089.245,727.949,1089.344,728.084,1089.443,728.219z"/>
				</g>
			</g>
			<g>
				<g>
					<path style="fill:#FDC9BC;" d="M1083.469,738.112c0.125,0.119,0.233,0.229,0.341,0.339c-0.836,1.217-1.714,2.442-2.659,3.665
						c-2.247,2.914-7.839,4.441-11.249,2.247l-0.767-0.504c2.945,0.88,7.263-0.913,9.059-3.235c1.141-1.482,2.198-2.965,3.179-4.44
						C1082.231,736.94,1082.929,737.586,1083.469,738.112z"/>
				</g>
				<g>
					<path style="fill:#FDC9BC;" d="M1087.378,725.897c-0.05-0.043-0.1-0.093-0.15-0.136l0-0.008
						C1087.278,725.795,1087.328,725.846,1087.378,725.897z"/>
				</g>
			</g>
		</g>
		<g>
			<g>
				<path d="M1053.901,767.867l-0.054-2.345c16.433-0.381,23.961-7.603,27.381-13.594c3.213-5.626,3.071-10.691,2.474-11.759
					c-1.049-1.485-17.49-15.324-115.582-90.932l-4.081-3.147c-9.531-7.361-65.064-24.595-65.624-24.768l0.693-2.241
					c2.303,0.712,56.502,17.535,66.365,25.153l4.079,3.145c114.149,87.985,115.691,90.739,116.197,91.644
					c1.321,2.361,0.747,8.411-2.484,14.068C1080.22,758.425,1072.355,767.439,1053.901,767.867z"/>
			</g>
		</g>
		<g>
			<g>
				<path style="fill:#F49D75;" d="M971.097,894.801c0,0-0.061,0.184-0.224,0.51c-1.425,2.94-10.585,17.071-48.001-1.028
					c-41.475-20.056-47.573-137.015-58.882-149.402c-11.31-12.378-44.072-83.031-109.761-55.126c0,0-36.241,25.77-34.08,52.767
					c0,0,51.681,58.59,60.609,65.226c7.837,5.835,57.046,40.523,46.292,81.896c-1.839,7.057-8.141,11.489-14.841,11.585
					c-0.227,0.006-0.445,0.004-0.671-0.007c-1.326-0.031-2.65-0.238-3.964-0.639c-1.038-0.297-2.066-0.719-3.067-1.267
					c-12.352-6.748-30.536-16.908-45.981-26.485c-10.416-6.459-19.584-12.66-24.873-17.359
					c-7.127-6.331-22.423-19.558-38.602-33.483c-30.195-26.005-63.538-48.073-99.091-66.059
					c-34.359-17.386-81.674-47.067-116.115-91.192c-51.774-66.34-85.047-148.869-85.047-148.869l176.96-113.356l52.738,89.873
					c0,0,243.614,97.229,262.285,108.881c18.68,11.643,44.518,117.363,49.315,127.228c3.039,6.254,16.3,71.45,25.594,118.318
					c4.173,21.016,7.538,38.346,8.835,45.025c0.31,1.607,0.501,2.6,0.557,2.877C971.089,894.776,971.097,894.801,971.097,894.801z"
					/>
			</g>
		</g>
		<g>
			<g>
				<path style="fill:#F49D75;" d="M1085.174,852.11c-0.053,4.902-8.509,30.971-52.461,13.331
					c-43.943-17.64-75.096-85.815-119.695-118.993c-44.599-33.178-13.547-108.862-13.547-108.862s83.588,56.482,95.65,75.416
					c7.232,11.352,38.211,57.38,61.833,93.455c10.589,16.165,19.697,30.333,24.529,38.478c0.569,0.972,1.08,1.85,1.525,2.636
					c0.083,0.127,0.148,0.253,0.214,0.38C1084.49,850.206,1085.179,851.649,1085.174,852.11z"/>
			</g>
		</g>
		<g>
			<g>
				<path d="M721.3,744.42l-2.344-0.087c0.014-0.387,1.868-38.868,40.075-55.856l0.953,2.143
					C723.147,707,721.315,744.048,721.3,744.42z"/>
			</g>
		</g>
		<g>
			<g>
				<g>
					<path style="fill:#F07162;" d="M814.942,895.373c-1.086,2.675-2.231,5.24-3.424,7.703c-1.326-0.031-2.65-0.238-3.964-0.639
						c-1.038-0.297-2.066-0.719-3.067-1.267c-12.352-6.748-30.536-16.908-45.981-26.485c1.544-1.52,3.239-2.971,5.083-4.244
						c9.431-6.514,15.083-5.144,15.083-5.144l29.833,15.104c0.25,0.129,0.501,0.266,0.743,0.403l0.008,0.008
						C814.544,883.917,817.055,890.157,814.942,895.373z"/>
				</g>
			</g>
			<g>
				<g>
					<path style="fill:#FDC9BC;" d="M815.398,895.932c-1.009,2.491-2.092,4.88-3.208,7.152c-0.227,0.006-0.445,0.004-0.671-0.007
						c-1.326-0.031-2.65-0.238-3.964-0.639c1.449-2.797,2.824-5.771,4.1-8.914c1.475-3.661,0.61-9.891-2.399-12.711l1.102,0.549
						C815.217,883.832,817.252,891.343,815.398,895.932z"/>
				</g>
			</g>
		</g>
		<g>
			<g>
				<g>
					<path style="fill:#F07162;" d="M971.061,896.571c-0.615,0.22-1.247,0.44-1.879,0.643c-4.128,1.349-8.788-0.909-10.892-5.129
						l-0.008-0.008c-0.099-0.194-0.189-0.388-0.271-0.582l-10.063-23.724c0,0-0.758-4.424,4.739-11.333
						c2.638-3.321,6.108-5.945,8.982-7.77c4.173,21.016,7.538,38.346,8.835,45.026C970.814,895.301,971.005,896.293,971.061,896.571
						z"/>
				</g>
				<g>
					<path style="fill:#F07162;" d="M984.802,890.523l-0.008,0c0.002-0.202-0.004-0.403-0.019-0.605
						C984.789,890.12,984.795,890.321,984.802,890.523z"/>
				</g>
			</g>
			<g>
				<g>
					<path style="fill:#FDC9BC;" d="M971.077,896.655c0,0-0.061,0.184-0.224,0.51c-0.421,0.147-0.843,0.293-1.264,0.431
						c-3.623,1.187-9.294-0.763-10.931-4.634l-0.368-0.877c2.014,2.465,6.755,3.456,9.644,2.505c0.876-0.285,1.736-0.586,2.57-0.896
						c0.31,1.607,0.501,2.599,0.557,2.877C971.069,896.63,971.077,896.655,971.077,896.655z"/>
				</g>
				<g>
					<path style="fill:#FDC9BC;" d="M984.375,887.286c-0.008-0.05-0.024-0.109-0.04-0.168h0.008
						C984.359,887.177,984.367,887.227,984.375,887.286z"/>
				</g>
			</g>
		</g>
		<g>
			<g>
				<g>
					<path style="fill:#F07162;" d="M1081.482,844.935c0.569,0.972,1.08,1.85,1.525,2.636c-2.406,2.014-5.021,3.992-7.846,5.893
						c-3.602,2.413-8.705,1.51-11.875-1.983c-0.008,0-0.008-0.008-0.017-0.008c-0.141-0.161-0.282-0.322-0.414-0.491l-16.13-20.095
						c0,0-1.929-4.05,1.491-12.199c2.214-5.282,6.208-9.747,8.736-12.23C1067.543,822.622,1076.65,836.79,1081.482,844.935z"/>
				</g>
				<g>
					<path style="fill:#F07162;" d="M1088.381,842.776c-0.008,0.008-0.008,0.008-0.017,0.008c-0.048-0.194-0.113-0.387-0.178-0.581
						C1088.259,842.388,1088.324,842.582,1088.381,842.776z"/>
				</g>
			</g>
			<g>
				<g>
					<path style="fill:#FDC9BC;" d="M1083.221,847.951c-2.28,1.957-4.802,3.902-7.567,5.762c-3.163,2.132-9.153,1.791-11.788-1.487
						l-0.596-0.753c0.008,0,0.008,0.008,0.017,0.008c2.608,1.825,7.439,1.49,9.959-0.204c3.027-2.041,5.77-4.186,8.236-6.342
						c0.569,0.972,1.08,1.85,1.525,2.636C1083.089,847.697,1083.155,847.824,1083.221,847.951z"/>
				</g>
			</g>
		</g>
		<g>
			<g>
				<path d="M810.958,903.642c-2.919-0.031-5.821-0.781-8.487-2.24c-20.424-11.178-56.628-31.655-69.621-43.2
					c-6.18-5.492-19.16-16.754-38.58-33.473c-29.686-25.558-62.948-47.73-98.863-65.898
					c-33.984-17.192-81.784-47.025-116.506-91.516l1.849-1.443c34.456,44.149,81.945,73.781,115.716,90.865
					c36.084,18.254,69.505,40.532,99.335,66.214c19.43,16.728,32.419,27.999,38.608,33.498
					c12.82,11.392,48.851,31.765,69.189,42.896c4.418,2.417,9.581,2.595,14.168,0.487c4.473-2.056,7.616-5.97,8.624-10.738
					c5.305-25.116-10.428-52.059-45.499-77.916l-0.855-0.633c-8.917-6.632-58.673-62.996-60.786-65.392
					c-11.47-12.909-13.682-35.878-13.771-36.849l2.336-0.213c0.021,0.23,2.235,23.177,13.191,35.507
					c0.519,0.588,51.709,58.578,60.429,65.065l0.848,0.627c5.084,3.748,18.586,13.703,29.974,27.8
					c14.473,17.916,20,35.576,16.428,52.489c-1.162,5.501-4.784,10.015-9.939,12.385
					C816.245,903.113,813.595,903.67,810.958,903.642z"/>
			</g>
		</g>
		<g>
			<g>
				<path d="M1059.999,872.779c-5.036-0.053-10.771-0.931-17.184-2.633l0.602-2.268c15.327,4.068,26.447,3.299,33.051-2.288
					c6.537-5.53,6.461-14.193,6.383-15.837c-4.291-6.583-86.156-132.118-92.953-141.365c-6.856-9.327-81.285-63.085-82.036-63.627
					l1.372-1.902c3.079,2.221,75.482,54.518,82.555,64.139c6.984,9.501,89.679,136.337,93.196,141.731l0.158,0.243l0.027,0.289
					c0.042,0.456,0.946,11.238-7.188,18.12C1073.636,871.059,1067.615,872.86,1059.999,872.779z"/>
			</g>
		</g>
		<g>
			<path d="M527.351,699.607c-14.233-9.93-17.144-28.371-17.261-29.151l1.992-0.299c0.027,0.182,2.913,18.373,16.422,27.798
				L527.351,699.607z"/>
		</g>
		<g>
			<path d="M547.853,704.519c-16.223-6.165-23.538-23.341-23.841-24.069l1.859-0.775c0.071,0.17,7.3,17.111,22.698,22.962
				L547.853,704.519z"/>
		</g>
		<g>
			<path style="fill:#F49D75;" d="M352.829,416.945l43.549,104.026l248.937-14.908L542.587,275.899
				C466.95,308.555,398.02,364.972,352.829,416.945z"/>
		</g>
		<g>
			
				<rect x="582.941" y="278.546" transform="matrix(0.9136 -0.4066 0.4066 0.9136 -99.6713 269.554)" style="fill:#0D171E;" width="3.021" height="181.534"/>
		</g>
		<g>
			<path style="fill:#0D171E;" d="M437.305,605.303c-24.337-32.396-78.685-173.198-80.987-179.176l2.82-1.086
				c0.562,1.46,56.498,146.387,80.582,178.448L437.305,605.303z"/>
		</g>
		<g>
			<g>
				<g>
					<g>
						<g>
							
								<rect x="758.916" y="429.836" transform="matrix(-0.7736 0.6336 -0.6336 -0.7736 1908.4102 867.6237)" style="fill:#FEC786;" width="80.613" height="689.745"/>
						</g>
					</g>
				</g>
				<g>
					<g>
						<g>
							
								<rect x="783.72" y="429.836" transform="matrix(-0.7736 0.6336 -0.6336 -0.7736 1908.41 867.6243)" style="fill:#F99247;" width="31.005" height="689.745"/>
						</g>
					</g>
				</g>
				<g>
					<g>
						<g>
							
								<rect x="579.686" y="545.731" transform="matrix(-0.7736 0.6336 -0.6336 -0.7736 1451.8645 593.075)" style="fill:#4CB7D8;" width="80.613" height="20.302"/>
						</g>
					</g>
				</g>
				<g>
					<g>
						<g>
							<path style="fill:#FC4963;" d="M557.307,479.348L557.307,479.348c17.221-14.105,42.617-11.579,56.722,5.642l30.713,37.498
								l-62.365,51.08l-30.713-37.498C537.559,518.849,540.085,493.453,557.307,479.348z"/>
						</g>
					</g>
				</g>
				<g>
					<g>
						<g>
							<path style="fill:#F7D6B2;" d="M1082.393,1120.438l-33.463-104.467l0,0c-4.263-5.204-12.014-5.905-17.313-1.565
								c-5.299,4.34-6.139,12.077-1.876,17.282c-4.263-5.204-13.088-5.025-19.711,0.4c-6.624,5.425-8.538,14.042-4.275,19.246
								c-4.263-5.204-12.014-5.905-17.313-1.565c-5.299,4.34-6.139,12.077-1.876,17.282l0,0L1082.393,1120.438z"/>
						</g>
					</g>
				</g>
				<g>
					<g>
						<g>
							<path style="fill:#FEC786;" d="M1048.93,1015.971c0,0-17.483,0.674-19.189,15.717l-9.11-11.122l19.189-15.717
								L1048.93,1015.971z"/>
						</g>
					</g>
				</g>
				<g>
					<g>
						<g>
							<path style="fill:#FEC786;" d="M1005.755,1051.334c0,0-17.483,0.674-19.189,15.717l-9.11-11.122l19.189-15.717
								L1005.755,1051.334z"/>
						</g>
					</g>
				</g>
				<g>
					<g>
						<g>
							<path style="fill:#F99247;" d="M1029.741,1031.688c0,0-18.966-1.952-23.987,19.646l-9.928-12.122l23.987-19.646
								L1029.741,1031.688z"/>
						</g>
					</g>
				</g>
				<g>
					<g>
						<g>
							<path style="fill:#FF424D;" d="M1071.279,1085.741c0,0-15.563,0.342-20.713,16.965l31.827,17.731L1071.279,1085.741z"/>
						</g>
					</g>
				</g>
			</g>
			<g>
				<g>
					<g>
						<path d="M556.432,478.29c-16.459,13.605-17.158,28.865-14.847,39.272c2.484,11.181,8.745,19.041,9.01,19.369l435.073,531.192
							l0.229,0.127l98.862,55.077l-21.551-67.278l-2.614,0.837l19.431,60.661l-92.564-51.569L552.727,535.2
							c-0.054-0.067-6.157-7.749-8.481-18.325c-3.079-14.011,1.609-26.281,13.936-36.47L556.432,478.29z"/>
					</g>
				</g>
			</g>
			<g>
				<g>
					<g>
						
							<rect x="835.313" y="558.568" transform="matrix(0.774 -0.6332 0.6332 0.774 -290.2482 700.8312)" width="2.745" height="396.925"/>
					</g>
				</g>
			</g>
			<g>
				<g>
					<g>
						
							<rect x="660.55" y="579.362" transform="matrix(0.3542 -0.9352 0.9352 0.3542 -128.6295 1003.0089)" width="2.746" height="30.556"/>
					</g>
				</g>
			</g>
			<g>
				<g>
					<g>
						
							<rect x="593.054" y="495.34" transform="matrix(0.3542 -0.9352 0.9352 0.3542 -87.4546 881.4019)" width="2.746" height="17.359"/>
					</g>
				</g>
			</g>
			<g>
				<g>
					<g>
						
							<rect x="585.225" y="482.366" transform="matrix(0.3542 -0.9352 0.9352 0.3542 -80.3953 865.6702)" width="2.746" height="17.359"/>
					</g>
				</g>
			</g>
			<g>
				<g>
					<g>
						
							<rect x="655.072" y="564.184" transform="matrix(0.3542 -0.9352 0.9352 0.3542 -117.9722 988.085)" width="2.746" height="30.555"/>
					</g>
				</g>
			</g>
			<g>
				<g>
					<g>
						
							<rect x="573.207" y="546.6" transform="matrix(0.7725 -0.635 0.635 0.7725 -208.3971 514.2758)" width="80.613" height="2.745"/>
					</g>
				</g>
			</g>
		</g>
		<path style="fill:#F49D75;" d="M969.809,899.354l-5.174-0.408l-19.707-17.81l-19.782-42.448c0,0-30.637-31.302-31.164-31.308
			c-0.528-0.006-13.914,1.082-13.914,1.082l11.517,41.831l9.095,21.568l9.608,14.798l17.559,11.803l13.412,4.738l9.918,2.288
			l9.335-0.78L969.809,899.354z"/>
		<g>
			<g>
				<path d="M953.829,906.339c-7.227-0.077-17.386-2.32-31.487-9.141c-28.464-13.77-40.164-70.376-48.706-111.708
					c-3.789-18.329-7.061-34.158-10.533-37.96l1.732-1.582c3.907,4.278,6.923,18.87,11.098,39.067
					c7.968,38.549,20.009,96.804,47.431,110.071c21.858,10.575,33.64,9.856,39.674,7.389c4.687-1.914,6.396-5.007,6.819-5.937
					c-1.588-8.214-30.264-156.286-34.834-165.677c-1.292-2.655-3.939-11.621-7.6-24.029c-9.731-32.971-27.845-94.342-41.28-102.719
					c-8.51-5.307-77.895-38.992-144.554-61.398l0.748-2.224c66.833,22.464,136.492,56.297,145.048,61.631
					c14.191,8.848,31.779,68.44,42.288,104.045c3.493,11.837,6.253,21.186,7.46,23.666c4.81,9.886,33.86,160.209,35.094,166.603
					l0.059,0.308l-0.103,0.297c-0.068,0.199-1.756,4.902-8.15,7.559C961.576,905.623,958.25,906.386,953.829,906.339z"/>
			</g>
		</g>
	</g>
</g>
</svg>
